<mxfile host="65bd71144e">
    <diagram id="O7zK81jqK5gxm1WVZYLB" name="Page-1">
        <mxGraphModel dx="690" dy="773" grid="1" gridSize="10" guides="1" tooltips="1" connect="1" arrows="1" fold="1" page="1" pageScale="1" pageWidth="850" pageHeight="1100" math="0" shadow="0">
            <root>
                <mxCell id="0"/>
                <mxCell id="1" parent="0"/>
                <mxCell id="15" value="" style="group" vertex="1" connectable="0" parent="1">
                    <mxGeometry x="290" y="170" width="246" height="250" as="geometry"/>
                </mxCell>
                <mxCell id="10" value="OCR_interface" style="rounded=0;whiteSpace=wrap;html=1;" vertex="1" parent="15">
                    <mxGeometry x="26" width="220" height="60" as="geometry"/>
                </mxCell>
                <mxCell id="11" value="&amp;nbsp;+img_file_buffer: Bytes&lt;br&gt;&amp;nbsp;+total_value: dict&lt;br&gt;&amp;nbsp;+im_show: np.array&lt;br&gt;&amp;nbsp;+txts: list&lt;br&gt;&amp;nbsp;+boxes: list&lt;br&gt;&amp;nbsp;+font_path: string&lt;br&gt;&amp;nbsp;+cv2_img: np.array" style="rounded=0;whiteSpace=wrap;html=1;align=left;" vertex="1" parent="15">
                    <mxGeometry x="26" y="60" width="220" height="120" as="geometry"/>
                </mxCell>
                <mxCell id="12" value="ATTRIBUTES" style="text;html=1;strokeColor=none;fillColor=none;align=center;verticalAlign=middle;whiteSpace=wrap;rounded=0;rotation=-90;" vertex="1" parent="15">
                    <mxGeometry x="-15" y="105" width="60" height="30" as="geometry"/>
                </mxCell>
                <mxCell id="13" value="&amp;nbsp;+ocr_process()&lt;br&gt;&amp;nbsp;+is_float(): float, bool&lt;br&gt;&amp;nbsp;+process_values()&lt;br&gt;&amp;nbsp;+img_capture()" style="rounded=0;whiteSpace=wrap;html=1;align=left;" vertex="1" parent="15">
                    <mxGeometry x="26" y="180" width="220" height="70" as="geometry"/>
                </mxCell>
                <mxCell id="14" value="METHODS" style="text;html=1;strokeColor=none;fillColor=none;align=center;verticalAlign=middle;whiteSpace=wrap;rounded=0;rotation=-90;" vertex="1" parent="15">
                    <mxGeometry x="-15" y="200" width="60" height="30" as="geometry"/>
                </mxCell>
            </root>
        </mxGraphModel>
    </diagram>
</mxfile>